<svg xmlns="http://www.w3.org/2000/svg" width="50.683" height="48.444" viewBox="0 0 50.683 48.444">
  <path id="iconfinder_LinkedIn_alt_367593" d="M46.643,71.035H57.5v32.687H46.643Zm5.5-15.757c-3.718,0-6.146,2.441-6.146,5.644,0,3.138,2.358,5.649,6,5.649h.069c3.789,0,6.148-2.512,6.148-5.649C58.151,57.719,55.862,55.278,52.146,55.278ZM84.174,70.267a10.784,10.784,0,0,0-9.79,5.4V71.035H63.519c.144,3.066,0,32.687,0,32.687H74.384V85.467a7.48,7.48,0,0,1,.357-2.652,5.949,5.949,0,0,1,5.573-3.973c3.934,0,5.505,3,5.505,7.391v17.489H96.683V84.978C96.683,74.938,91.325,70.267,84.174,70.267Z" transform="translate(-46 -55.278)" fill="#fff"/>
</svg>
